<svg width="20" height="20" viewBox="0 0 20 20" fill="none" xmlns="http://www.w3.org/2000/svg">
<rect x="2.39844" y="7.20001" width="15.2" height="10.4" fill="#FCDDEC"/>
<path d="M17.1312 3.22607H16.0617V2.51303C16.0617 2.32392 15.9865 2.14255 15.8528 2.00883C15.7191 1.87511 15.5377 1.79999 15.3486 1.79999H14.6356C14.4465 1.79999 14.2651 1.87511 14.1314 2.00883C13.9976 2.14255 13.9225 2.32392 13.9225 2.51303V3.22607H11.0703V2.51303C11.0703 2.32392 10.9952 2.14255 10.8615 2.00883C10.7278 1.87511 10.5464 1.79999 10.3573 1.79999H9.64426C9.45515 1.79999 9.27378 1.87511 9.14006 2.00883C9.00634 2.14255 8.93122 2.32392 8.93122 2.51303V3.22607H6.07904V2.51303C6.07904 2.32392 6.00392 2.14255 5.8702 2.00883C5.73647 1.87511 5.55511 1.79999 5.366 1.79999H4.65296C4.46384 1.79999 4.28248 1.87511 4.14876 2.00883C4.01504 2.14255 3.93991 2.32392 3.93991 2.51303V3.22607H2.87035C2.58668 3.22607 2.31463 3.33876 2.11405 3.53934C1.91347 3.73993 1.80078 4.01197 1.80078 4.29564V17.1304C1.80078 17.4141 1.91347 17.6861 2.11405 17.8867C2.31463 18.0873 2.58668 18.2 2.87035 18.2H17.1312C17.4149 18.2 17.6869 18.0873 17.8875 17.8867C18.0881 17.6861 18.2008 17.4141 18.2008 17.1304V4.29564C18.2008 4.01197 18.0881 3.73993 17.8875 3.53934C17.6869 3.33876 17.4149 3.22607 17.1312 3.22607ZM14.6356 2.51303H15.3486V4.65216H14.6356V2.51303ZM9.64426 2.51303H10.3573V3.53981C10.3573 3.53981 10.3573 3.53981 10.3573 3.5826C10.3573 3.62538 10.3573 3.5826 10.3573 3.63251V4.65216H9.64426V2.51303ZM4.65296 2.51303H5.366V4.65216H4.65296V2.51303ZM2.87035 3.93912H3.93991V4.65216C3.93991 4.84127 4.01504 5.02264 4.14876 5.15636C4.28248 5.29008 4.46384 5.36521 4.65296 5.36521H5.366C5.55511 5.36521 5.73647 5.29008 5.8702 5.15636C6.00392 5.02264 6.07904 4.84127 6.07904 4.65216V3.93912H8.93122V4.65216C8.93122 4.84127 9.00634 5.02264 9.14006 5.15636C9.27378 5.29008 9.45515 5.36521 9.64426 5.36521H10.3573C10.5464 5.36521 10.7278 5.29008 10.8615 5.15636C10.9952 5.02264 11.0703 4.84127 11.0703 4.65216V3.93912H13.9225V4.65216C13.9225 4.84127 13.9976 5.02264 14.1314 5.15636C14.2651 5.29008 14.4465 5.36521 14.6356 5.36521H15.3486C15.5377 5.36521 15.7191 5.29008 15.8528 5.15636C15.9865 5.02264 16.0617 4.84127 16.0617 4.65216V3.93912H17.1312C17.2258 3.93912 17.3165 3.97668 17.3833 4.04354C17.4502 4.1104 17.4877 4.20108 17.4877 4.29564V6.79129H2.51382V4.29564C2.51382 4.20108 2.55139 4.1104 2.61825 4.04354C2.68511 3.97668 2.77579 3.93912 2.87035 3.93912ZM17.1312 17.4869H2.87035C2.77579 17.4869 2.68511 17.4494 2.61825 17.3825C2.55139 17.3157 2.51382 17.225 2.51382 17.1304V7.50434H17.4877V17.1304C17.4877 17.225 17.4502 17.3157 17.3833 17.3825C17.3165 17.4494 17.2258 17.4869 17.1312 17.4869Z" fill="#EF5DA8" stroke="#EF5DA8" stroke-width="0.3"/>
<path d="M5.25861 9.13065H4.08922C4.01169 9.13065 3.93733 9.16145 3.8825 9.21627C3.82768 9.2711 3.79687 9.34546 3.79688 9.42299V10.5924C3.79687 10.6699 3.82768 10.7443 3.8825 10.7991C3.93733 10.8539 4.01169 10.8847 4.08922 10.8847H5.25861C5.33615 10.8847 5.41051 10.8539 5.46534 10.7991C5.52016 10.7443 5.55096 10.6699 5.55096 10.5924V9.42299C5.55096 9.34546 5.52016 9.2711 5.46534 9.21627C5.41051 9.16145 5.33615 9.13065 5.25861 9.13065ZM5.25861 10.5924H4.08922V10.0077V9.42299H5.25861V10.5924Z" stroke="#F178B6" stroke-width="0.4"/>
<path d="M8.96565 9.13074H7.79625C7.71872 9.13074 7.64436 9.16154 7.58953 9.21636C7.53471 9.27119 7.50391 9.34555 7.50391 9.42309V10.5925C7.50391 10.67 7.53471 10.7444 7.58953 10.7992C7.64436 10.854 7.71872 10.8848 7.79625 10.8848H8.96565C9.04318 10.8848 9.11754 10.854 9.17237 10.7992C9.22719 10.7444 9.25799 10.67 9.25799 10.5925V9.42309C9.25799 9.34555 9.22719 9.27119 9.17237 9.21636C9.11754 9.16154 9.04318 9.13074 8.96565 9.13074ZM8.96565 10.5925H7.79625V10.0078V9.42309H8.96565V10.5925Z" fill="#F178B6" stroke="#F178B6" stroke-width="0.4"/>
<path d="M12.5321 9.13074H11.3627C11.2851 9.13074 11.2108 9.16154 11.1559 9.21636C11.1011 9.27119 11.0703 9.34555 11.0703 9.42309V10.5925C11.0703 10.67 11.1011 10.7444 11.1559 10.7992C11.2108 10.854 11.2851 10.8848 11.3627 10.8848H12.5321C12.6096 10.8848 12.6839 10.854 12.7388 10.7992C12.7936 10.7444 12.8244 10.67 12.8244 10.5925V9.42309C12.8244 9.34555 12.7936 9.27119 12.7388 9.21636C12.6839 9.16154 12.6096 9.13074 12.5321 9.13074ZM12.5321 10.5925H11.3627V10.0078V9.42309H12.5321V10.5925Z" fill="#F178B6" stroke="#F178B6" stroke-width="0.4"/>
<path d="M16.0985 9.13074H14.9291C14.8515 9.13074 14.7772 9.16154 14.7223 9.21636C14.6675 9.27119 14.6367 9.34555 14.6367 9.42309V10.5925C14.6367 10.67 14.6675 10.7444 14.7223 10.7992C14.7772 10.854 14.8515 10.8848 14.9291 10.8848H16.0985C16.176 10.8848 16.2504 10.854 16.3052 10.7992C16.36 10.7444 16.3908 10.67 16.3908 10.5925V9.42309C16.3908 9.34555 16.36 9.27119 16.3052 9.21636C16.2504 9.16154 16.176 9.13074 16.0985 9.13074ZM16.0985 10.5925H14.9291V10.0078V9.42309H16.0985V10.5925Z" fill="#F178B6" stroke="#F178B6" stroke-width="0.4"/>
<path d="M5.25861 12.6947H4.08922C4.01169 12.6947 3.93733 12.7255 3.8825 12.7803C3.82768 12.8352 3.79687 12.9095 3.79688 12.9871V14.1564C3.79687 14.234 3.82768 14.3083 3.8825 14.3632C3.93733 14.418 4.01169 14.4488 4.08922 14.4488H5.25861C5.33615 14.4488 5.41051 14.418 5.46534 14.3632C5.52016 14.3083 5.55096 14.234 5.55096 14.1564V12.9871C5.55096 12.9095 5.52016 12.8352 5.46534 12.7803C5.41051 12.7255 5.33615 12.6947 5.25861 12.6947ZM5.25861 14.1564H4.08922V13.5717V12.9871H5.25861V14.1564Z" fill="#F178B6" stroke="#F178B6" stroke-width="0.4"/>
<path d="M8.96565 12.6949H7.79625C7.71872 12.6949 7.64436 12.7257 7.58953 12.7805C7.53471 12.8353 7.50391 12.9097 7.50391 12.9872V14.1566C7.50391 14.2342 7.53471 14.3085 7.58953 14.3633C7.64436 14.4182 7.71872 14.449 7.79625 14.449H8.96565C9.04318 14.449 9.11754 14.4182 9.17237 14.3633C9.22719 14.3085 9.25799 14.2342 9.25799 14.1566V12.9872C9.25799 12.9097 9.22719 12.8353 9.17237 12.7805C9.11754 12.7257 9.04318 12.6949 8.96565 12.6949ZM8.96565 14.1566H7.79625V13.5719V12.9872H8.96565V14.1566Z" fill="#F178B6" stroke="#F178B6" stroke-width="0.4"/>
<path d="M12.5321 12.6949H11.3627C11.2851 12.6949 11.2108 12.7257 11.1559 12.7805C11.1011 12.8353 11.0703 12.9097 11.0703 12.9872V14.1566C11.0703 14.2342 11.1011 14.3085 11.1559 14.3633C11.2108 14.4182 11.2851 14.449 11.3627 14.449H12.5321C12.6096 14.449 12.6839 14.4182 12.7388 14.3633C12.7936 14.3085 12.8244 14.2342 12.8244 14.1566V12.9872C12.8244 12.9097 12.7936 12.8353 12.7388 12.7805C12.6839 12.7257 12.6096 12.6949 12.5321 12.6949ZM12.5321 14.1566H11.3627V13.5719V12.9872H12.5321V14.1566Z" fill="#F178B6" stroke="#F178B6" stroke-width="0.4"/>
<path d="M16.0985 12.6949H14.9291C14.8515 12.6949 14.7772 12.7257 14.7223 12.7805C14.6675 12.8353 14.6367 12.9097 14.6367 12.9872V14.1566C14.6367 14.2342 14.6675 14.3085 14.7223 14.3633C14.7772 14.4182 14.8515 14.449 14.9291 14.449H16.0985C16.176 14.449 16.2504 14.4182 16.3052 14.3633C16.36 14.3085 16.3908 14.2342 16.3908 14.1566V12.9872C16.3908 12.9097 16.36 12.8353 16.3052 12.7805C16.2504 12.7257 16.176 12.6949 16.0985 12.6949ZM16.0985 14.1566H14.9291V13.5719V12.9872H16.0985V14.1566Z" fill="#F178B6" stroke="#F178B6" stroke-width="0.4"/>
</svg>
