<svg width="75" height="36" viewBox="0 0 75 36" fill="none" xmlns="http://www.w3.org/2000/svg">
<rect width="75" height="36" rx="5" fill="#EFEFEF"/>
<path d="M16.999 17.0986C16.999 15.5036 17.3932 14.2549 18.1816 13.3525C18.9746 12.4456 20.1117 11.9922 21.5928 11.9922C22.4587 11.9922 23.1742 12.1403 23.7393 12.4365C24.3044 12.7282 24.71 13.1292 24.9561 13.6396C25.0837 13.904 25.0632 14.0863 24.8945 14.1865L24.3545 14.501C24.1722 14.6058 24.0104 14.5192 23.8691 14.2412C23.7188 13.9541 23.4727 13.6852 23.1309 13.4346C22.7891 13.1839 22.2992 13.0586 21.6611 13.0586C20.5218 13.0586 19.6924 13.4141 19.1729 14.125C18.6579 14.8314 18.4004 15.8226 18.4004 17.0986C18.4004 18.3747 18.6579 19.3682 19.1729 20.0791C19.6924 20.7855 20.5218 21.1387 21.6611 21.1387C22.3174 21.1387 22.8415 20.9883 23.2334 20.6875C23.6299 20.3867 23.917 20.0723 24.0947 19.7441C24.236 19.4798 24.4001 19.4001 24.5869 19.5049L25.1543 19.8262C25.3184 19.9219 25.332 20.1042 25.1953 20.373C24.9264 20.8971 24.4889 21.3346 23.8828 21.6855C23.2767 22.0319 22.5133 22.2051 21.5928 22.2051C20.1117 22.2051 18.9746 21.7539 18.1816 20.8516C17.3932 19.9447 16.999 18.6937 16.999 17.0986ZM26.5352 20.0859C26.5352 19.2747 26.9134 18.68 27.6699 18.3018C28.431 17.9235 29.5658 17.7025 31.0742 17.6387V17.1738C31.0742 16.7454 30.9762 16.3763 30.7803 16.0664C30.5889 15.752 30.2061 15.5947 29.6318 15.5947C29.2673 15.5947 28.9756 15.6312 28.7568 15.7041C28.5381 15.7725 28.3376 15.8659 28.1553 15.9844C27.9775 16.0983 27.8066 16.2464 27.6426 16.4287C27.5195 16.5654 27.4033 16.5723 27.2939 16.4492L26.9385 16.0391C26.8382 15.9251 26.8724 15.7884 27.041 15.6289C27.2826 15.401 27.5173 15.2301 27.7451 15.1162C27.973 15.0023 28.2555 14.9066 28.5928 14.8291C28.9346 14.7471 29.2809 14.7061 29.6318 14.7061C30.5843 14.7061 31.2633 14.9521 31.6689 15.4443C32.0745 15.932 32.2773 16.6019 32.2773 17.4541V21.6924C32.2773 21.8975 32.1748 22 31.9697 22H31.3545C31.1768 22 31.0879 21.8975 31.0879 21.6924V21.3574H31.0742C30.7142 21.64 30.361 21.8382 30.0146 21.9521C29.6729 22.0615 29.29 22.1162 28.8662 22.1162C28.1188 22.1162 27.5423 21.9385 27.1367 21.583C26.7357 21.223 26.5352 20.724 26.5352 20.0859ZM27.7793 20.1133C27.7793 20.3958 27.8385 20.6237 27.957 20.7969C28.0755 20.9655 28.2396 21.0749 28.4492 21.125C28.6589 21.1706 28.8776 21.1934 29.1055 21.1934C29.4564 21.1934 29.7891 21.1592 30.1035 21.0908C30.418 21.0225 30.7415 20.8424 31.0742 20.5508V18.5342C30.1536 18.6025 29.4974 18.6868 29.1055 18.7871C28.7135 18.8828 28.3945 19.0514 28.1484 19.293C27.9023 19.5299 27.7793 19.8034 27.7793 20.1133ZM34.5332 22C34.3281 22 34.2256 21.8975 34.2256 21.6924V15.1299C34.2256 14.9248 34.3281 14.8223 34.5332 14.8223H35.1074C35.3125 14.8223 35.415 14.9248 35.415 15.1299V15.6768H35.4424C35.7386 15.3486 36.0576 15.1048 36.3994 14.9453C36.7412 14.7858 37.1673 14.7061 37.6777 14.7061C38.5072 14.7061 39.1019 14.9408 39.4619 15.4102C39.8265 15.875 40.0088 16.513 40.0088 17.3242V21.6924C40.0088 21.8975 39.9062 22 39.7012 22H39.1133C38.9082 22 38.8057 21.8975 38.8057 21.6924V17.6523C38.8057 16.7591 38.6576 16.194 38.3613 15.957C38.0651 15.7155 37.6891 15.5947 37.2334 15.5947C36.641 15.5947 36.1921 15.7725 35.8867 16.1279C35.5814 16.4788 35.4287 17.0827 35.4287 17.9395V21.6924C35.4287 21.8975 35.3262 22 35.1211 22H34.5332ZM41.5469 18.4111C41.5469 17.3402 41.8112 16.4561 42.3398 15.7588C42.873 15.057 43.6865 14.7061 44.7803 14.7061C45.5186 14.7061 46.0814 14.8382 46.4688 15.1025C46.8607 15.3623 47.1432 15.6289 47.3164 15.9023C47.4121 16.0527 47.3916 16.1735 47.2549 16.2646L46.8242 16.5449C46.6875 16.6406 46.5508 16.5791 46.4141 16.3604C46.2819 16.1507 46.0951 15.9707 45.8535 15.8203C45.6165 15.6699 45.2588 15.5947 44.7803 15.5947C44.1559 15.5947 43.6729 15.8249 43.3311 16.2852C42.9893 16.7454 42.8184 17.4541 42.8184 18.4111C42.8184 19.3682 42.9893 20.0768 43.3311 20.5371C43.6729 20.9974 44.1559 21.2275 44.7803 21.2275C45.2861 21.2275 45.6735 21.1318 45.9424 20.9404C46.2113 20.7445 46.4072 20.5326 46.5303 20.3047C46.6488 20.0905 46.7832 20.029 46.9336 20.1201L47.3916 20.3936C47.5283 20.4756 47.5488 20.5986 47.4531 20.7627C47.3392 20.9587 47.0794 21.2344 46.6738 21.5898C46.2728 21.9408 45.6416 22.1162 44.7803 22.1162C43.6865 22.1162 42.873 21.7676 42.3398 21.0703C41.8112 20.3685 41.5469 19.4821 41.5469 18.4111ZM48.5605 18.4111C48.5605 17.2809 48.8431 16.3809 49.4082 15.7109C49.9733 15.041 50.7822 14.7061 51.835 14.7061C52.71 14.7061 53.4346 15.0137 54.0088 15.6289C54.5876 16.2396 54.877 17.2171 54.877 18.5615C54.877 18.7666 54.7835 18.8691 54.5967 18.8691H49.832C49.9095 19.7487 50.1465 20.3617 50.543 20.708C50.9395 21.0498 51.3883 21.2207 51.8896 21.2207C52.4183 21.2207 52.8239 21.1318 53.1064 20.9541C53.389 20.7764 53.5964 20.6009 53.7285 20.4277C53.8743 20.2363 54.0156 20.1999 54.1523 20.3184L54.5557 20.667C54.6605 20.7581 54.6605 20.8835 54.5557 21.043C54.4691 21.1751 54.2207 21.387 53.8105 21.6787C53.4049 21.9704 52.7646 22.1162 51.8896 22.1162C50.7503 22.1162 49.9095 21.7812 49.3672 21.1113C48.8294 20.4414 48.5605 19.5413 48.5605 18.4111ZM49.8047 17.9805H53.667C53.6488 17.3424 53.4847 16.7842 53.1748 16.3057C52.8649 15.8226 52.4092 15.5811 51.8076 15.5811C51.279 15.5811 50.8301 15.7588 50.4609 16.1143C50.0918 16.4652 49.873 17.0872 49.8047 17.9805ZM56.7637 22C56.5586 22 56.4561 21.8975 56.4561 21.6924V13.1611C56.4561 13.07 56.4788 12.9834 56.5244 12.9014L57.0029 12.0332C57.0895 11.8737 57.1602 11.7939 57.2148 11.7939H57.4541C57.5908 11.7939 57.6592 11.8737 57.6592 12.0332V21.6924C57.6592 21.8975 57.5566 22 57.3516 22H56.7637Z" fill="#2C2C2C"/>
</svg>
