<svg width="30" height="30" viewBox="0 0 30 30" fill="none" xmlns="http://www.w3.org/2000/svg">
<g clip-path="url(#clip0_514_10888)">
<path d="M14.1135 15L18.5385 10.575C18.7713 10.3408 18.902 10.024 18.902 9.69375C18.902 9.36352 18.7713 9.0467 18.5385 8.8125C18.4223 8.69534 18.284 8.60235 18.1317 8.53889C17.9794 8.47543 17.816 8.44275 17.651 8.44275C17.486 8.44275 17.3226 8.47543 17.1703 8.53889C17.018 8.60235 16.8797 8.69534 16.7635 8.8125L11.4635 14.1125C11.3463 14.2287 11.2533 14.367 11.1899 14.5193C11.1264 14.6716 11.0938 14.835 11.0938 15C11.0938 15.165 11.1264 15.3284 11.1899 15.4807C11.2533 15.633 11.3463 15.7713 11.4635 15.8875L16.7635 21.25C16.8803 21.3659 17.0188 21.4575 17.1711 21.5197C17.3234 21.5819 17.4865 21.6135 17.651 21.6125C17.8155 21.6135 17.9786 21.5819 18.1309 21.5197C18.2832 21.4575 18.4217 21.3659 18.5385 21.25C18.7713 21.0158 18.902 20.699 18.902 20.3687C18.902 20.0385 18.7713 19.7217 18.5385 19.4875L14.1135 15Z" fill="#888888"/>
</g>
<defs>
<clipPath id="clip0_514_10888">
<rect width="30" height="30" fill="white"/>
</clipPath>
</defs>
</svg>
