<svg width="14" height="14" viewBox="0 0 14 14" fill="none" xmlns="http://www.w3.org/2000/svg">
<g clip-path="url(#clip0_514_10902)">
<path d="M7.38932 0.777779H6.61155C6.39677 0.777779 6.22266 0.95189 6.22266 1.16667V12.8333C6.22266 13.0481 6.39677 13.2222 6.61155 13.2222H7.38932C7.6041 13.2222 7.77821 13.0481 7.77821 12.8333V1.16667C7.77821 0.95189 7.6041 0.777779 7.38932 0.777779Z" fill="#3BA2DC"/>
<path d="M13.2227 7.38889V6.61111C13.2227 6.39633 13.0485 6.22222 12.8338 6.22222L1.1671 6.22222C0.952323 6.22222 0.778212 6.39633 0.778212 6.61111V7.38889C0.778212 7.60367 0.952323 7.77778 1.1671 7.77778L12.8338 7.77778C13.0485 7.77778 13.2227 7.60367 13.2227 7.38889Z" fill="#3BA2DC"/>
</g>
<defs>
<clipPath id="clip0_514_10902">
<rect width="14" height="14" fill="white"/>
</clipPath>
</defs>
</svg>
