<svg width="14" height="14" viewBox="0 0 14 14" fill="none" xmlns="http://www.w3.org/2000/svg">
<g clip-path="url(#clip0_514_10901)">
<path d="M7 14C10.866 14 14 10.866 14 7C14 3.13401 10.866 0 7 0C3.13401 0 0 3.13401 0 7C0 10.866 3.13401 14 7 14Z" fill="#3BA2DC"/>
<path d="M7.38932 0.777779H6.61155C6.39677 0.777779 6.22266 0.95189 6.22266 1.16667V12.8333C6.22266 13.0481 6.39677 13.2222 6.61155 13.2222H7.38932C7.6041 13.2222 7.77821 13.0481 7.77821 12.8333V1.16667C7.77821 0.95189 7.6041 0.777779 7.38932 0.777779Z" fill="white"/>
<path d="M13.2227 7.38889V6.61111C13.2227 6.39633 13.0485 6.22222 12.8338 6.22222L1.16709 6.22222C0.952315 6.22222 0.778203 6.39633 0.778203 6.61111V7.38889C0.778203 7.60366 0.952315 7.77778 1.16709 7.77778L12.8338 7.77778C13.0485 7.77778 13.2227 7.60366 13.2227 7.38889Z" fill="white"/>
</g>
<defs>
<clipPath id="clip0_514_10901">
<rect width="14" height="14" fill="white"/>
</clipPath>
</defs>
</svg>
