<svg width="30" height="30" viewBox="0 0 30 30" fill="none" xmlns="http://www.w3.org/2000/svg">
<path d="M18.5361 14.1125L13.2361 8.8125C13.1199 8.69534 12.9817 8.60235 12.8294 8.53889C12.677 8.47543 12.5137 8.44275 12.3486 8.44275C12.1836 8.44275 12.0202 8.47543 11.8679 8.53889C11.7156 8.60235 11.5774 8.69534 11.4611 8.8125C11.2283 9.0467 11.0977 9.36352 11.0977 9.69375C11.0977 10.024 11.2283 10.3408 11.4611 10.575L15.8861 15L11.4611 19.425C11.2283 19.6592 11.0977 19.976 11.0977 20.3063C11.0977 20.6365 11.2283 20.9533 11.4611 21.1875C11.5779 21.3034 11.7165 21.395 11.8688 21.4572C12.0211 21.5194 12.1841 21.551 12.3486 21.55C12.5132 21.551 12.6762 21.5194 12.8285 21.4572C12.9808 21.395 13.1193 21.3034 13.2361 21.1875L18.5361 15.8875C18.6533 15.7713 18.7463 15.633 18.8098 15.4807C18.8732 15.3284 18.9059 15.165 18.9059 15C18.9059 14.835 18.8732 14.6716 18.8098 14.5193C18.7463 14.367 18.6533 14.2287 18.5361 14.1125Z" fill="#888888"/>
</svg>
