<svg width="92" height="36" viewBox="0 0 92 36" fill="none" xmlns="http://www.w3.org/2000/svg">
<rect width="92" height="36" rx="5" fill="#3BA2DC"/>
<path d="M17.0293 22C16.7012 22 16.5941 21.8496 16.708 21.5488L20.0576 12.751C20.1989 12.3818 20.4131 12.1973 20.7002 12.1973H21.6572C21.9443 12.1973 22.1585 12.3818 22.2998 12.751L25.6494 21.5488C25.7633 21.8496 25.6562 22 25.3281 22H24.2412C23.9404 22 23.7308 21.8428 23.6123 21.5283L22.915 19.6895H19.4424L18.7451 21.5283C18.6266 21.8428 18.417 22 18.1162 22H17.0293ZM20.0781 17.9941H22.2793L21.4385 15.8203C21.3382 15.5651 21.2767 15.3805 21.2539 15.2666C21.2357 15.1481 21.2152 14.9749 21.1924 14.7471H21.165C21.1423 14.9749 21.1195 15.1481 21.0967 15.2666C21.0785 15.3805 21.0192 15.5651 20.9189 15.8203L20.0781 17.9941ZM26.3193 18.4111C26.3193 17.4085 26.5358 16.5381 26.9688 15.7998C27.4062 15.057 28.1605 14.6855 29.2314 14.6855C29.6416 14.6855 29.9925 14.7448 30.2842 14.8633C30.5758 14.9818 30.8402 15.237 31.0771 15.6289H31.1045C31.0863 15.4466 31.0771 15.2643 31.0771 15.082V12.3203C31.0771 12.0469 31.2139 11.9102 31.4873 11.9102H32.5811C32.8545 11.9102 32.9912 12.0469 32.9912 12.3203V21.5898C32.9912 21.8633 32.8545 22 32.5811 22H31.501C31.2731 22 31.1501 21.8633 31.1318 21.5898L31.1045 21.1934H31.0771C30.8402 21.5853 30.5758 21.8405 30.2842 21.959C29.9925 22.0775 29.6416 22.1367 29.2314 22.1367C28.1605 22.1367 27.4062 21.7676 26.9688 21.0293C26.5358 20.2865 26.3193 19.4137 26.3193 18.4111ZM28.3428 18.4111C28.3428 19.1403 28.4362 19.7214 28.623 20.1543C28.8145 20.5827 29.2178 20.7969 29.833 20.7969C30.1748 20.7969 30.4665 20.6055 30.708 20.2227C30.9541 19.8353 31.0771 19.334 31.0771 18.7188V18.1035C31.0771 17.4883 30.9541 16.9893 30.708 16.6064C30.4665 16.2191 30.1748 16.0254 29.833 16.0254C29.2178 16.0254 28.8145 16.2419 28.623 16.6748C28.4362 17.1032 28.3428 17.682 28.3428 18.4111ZM34.4678 18.4111C34.4678 17.4085 34.6842 16.5381 35.1172 15.7998C35.5547 15.057 36.3089 14.6855 37.3799 14.6855C37.79 14.6855 38.141 14.7448 38.4326 14.8633C38.7243 14.9818 38.9886 15.237 39.2256 15.6289H39.2529C39.2347 15.4466 39.2256 15.2643 39.2256 15.082V12.3203C39.2256 12.0469 39.3623 11.9102 39.6357 11.9102H40.7295C41.0029 11.9102 41.1396 12.0469 41.1396 12.3203V21.5898C41.1396 21.8633 41.0029 22 40.7295 22H39.6494C39.4215 22 39.2985 21.8633 39.2803 21.5898L39.2529 21.1934H39.2256C38.9886 21.5853 38.7243 21.8405 38.4326 21.959C38.141 22.0775 37.79 22.1367 37.3799 22.1367C36.3089 22.1367 35.5547 21.7676 35.1172 21.0293C34.6842 20.2865 34.4678 19.4137 34.4678 18.4111ZM36.4912 18.4111C36.4912 19.1403 36.5846 19.7214 36.7715 20.1543C36.9629 20.5827 37.3662 20.7969 37.9814 20.7969C38.3232 20.7969 38.6149 20.6055 38.8564 20.2227C39.1025 19.8353 39.2256 19.334 39.2256 18.7188V18.1035C39.2256 17.4883 39.1025 16.9893 38.8564 16.6064C38.6149 16.2191 38.3232 16.0254 37.9814 16.0254C37.3662 16.0254 36.9629 16.2419 36.7715 16.6748C36.5846 17.1032 36.4912 17.682 36.4912 18.4111ZM47.5996 13.9473C47.2578 13.9473 47.0869 13.7992 47.0869 13.5029V12.6416C47.0869 12.3454 47.2578 12.1973 47.5996 12.1973H54.627C54.9688 12.1973 55.1396 12.3454 55.1396 12.6416V13.5029C55.1396 13.7992 54.9688 13.9473 54.627 13.9473H52.1113V21.624C52.1113 21.8747 51.9974 22 51.7695 22H50.457C50.2292 22 50.1152 21.8747 50.1152 21.624V13.9473H47.5996ZM54.1143 20.0859C54.1143 19.1745 54.5495 18.5137 55.4199 18.1035C56.2904 17.6934 57.2839 17.4746 58.4004 17.4473V17.1738C58.4004 16.7546 58.2956 16.4583 58.0859 16.2852C57.8763 16.112 57.5846 16.0254 57.2109 16.0254C56.9466 16.0254 56.7119 16.0641 56.5068 16.1416C56.3063 16.2145 56.1309 16.3011 55.9805 16.4014C55.8346 16.4971 55.7025 16.5951 55.584 16.6953C55.3743 16.8776 55.2012 16.8867 55.0645 16.7227L54.4971 16.0254C54.3558 15.8522 54.39 15.6745 54.5996 15.4922C54.7591 15.3509 54.9437 15.2279 55.1533 15.123C55.3675 15.0182 55.6501 14.9202 56.001 14.8291C56.3519 14.7334 56.8076 14.6855 57.3682 14.6855C58.3161 14.6855 59.043 14.9043 59.5488 15.3418C60.0592 15.7793 60.3145 16.4242 60.3145 17.2764V21.5898C60.3145 21.8633 60.1777 22 59.9043 22H58.7832C58.5371 22 58.4141 21.8633 58.4141 21.5898V21.3848H58.4004C58.1315 21.6445 57.8079 21.8359 57.4297 21.959C57.056 22.0775 56.7119 22.1367 56.3975 22.1367C55.6501 22.1367 55.0827 21.9544 54.6953 21.5898C54.3079 21.2207 54.1143 20.7194 54.1143 20.0859ZM56.1377 20.0449C56.1377 20.2044 56.1696 20.3434 56.2334 20.4619C56.2972 20.5758 56.3975 20.6602 56.5342 20.7148C56.6709 20.7695 56.8236 20.7969 56.9922 20.7969C57.2246 20.7969 57.4502 20.765 57.6689 20.7012C57.8877 20.6374 58.1315 20.487 58.4004 20.25V18.7666C57.6348 18.8532 57.1221 18.9648 56.8623 19.1016C56.6025 19.2383 56.4157 19.3796 56.3018 19.5254C56.1924 19.6712 56.1377 19.8444 56.1377 20.0449ZM62.0371 21.5215C61.8138 21.362 61.7523 21.1911 61.8525 21.0088L62.2012 20.373C62.3242 20.1452 62.5156 20.1178 62.7754 20.291C63.0352 20.4642 63.3405 20.5918 63.6914 20.6738C64.0469 20.7559 64.3704 20.7969 64.6621 20.7969C64.8672 20.7969 65.0586 20.7764 65.2363 20.7354C65.4141 20.6943 65.5645 20.6146 65.6875 20.4961C65.8105 20.3776 65.8721 20.2044 65.8721 19.9766C65.8721 19.8398 65.8356 19.7236 65.7627 19.6279C65.6898 19.5322 65.5964 19.4593 65.4824 19.4092C65.3685 19.359 65.2477 19.318 65.1201 19.2861C64.9515 19.2451 64.7077 19.1768 64.3887 19.0811C64.0742 18.9854 63.7712 18.8737 63.4795 18.7461C63.238 18.6413 63.001 18.4954 62.7686 18.3086C62.5407 18.1172 62.3721 17.9053 62.2627 17.6729C62.1579 17.4404 62.1055 17.1533 62.1055 16.8115C62.1055 16.3512 62.2376 15.9479 62.502 15.6016C62.7708 15.2552 63.1172 15.016 63.541 14.8838C63.9648 14.7516 64.4935 14.6855 65.127 14.6855C65.5553 14.6855 65.9723 14.7471 66.3779 14.8701C66.7835 14.9932 67.0729 15.1094 67.2461 15.2188C67.5195 15.3919 67.5879 15.5765 67.4512 15.7725L67.0342 16.3809C66.9066 16.5632 66.7015 16.5768 66.4189 16.4219C66.2048 16.3034 65.9928 16.2077 65.7832 16.1348C65.5781 16.0618 65.348 16.0254 65.0928 16.0254C64.9196 16.0254 64.7533 16.0436 64.5938 16.0801C64.4342 16.1165 64.2975 16.1849 64.1836 16.2852C64.0742 16.3854 64.0195 16.5176 64.0195 16.6816C64.0195 16.8548 64.0697 16.9915 64.1699 17.0918C64.2747 17.1875 64.3932 17.2581 64.5254 17.3037C64.6621 17.3493 64.792 17.3926 64.915 17.4336C65.1702 17.5156 65.4277 17.5954 65.6875 17.6729C65.9473 17.7458 66.2116 17.8346 66.4805 17.9395C66.7129 18.0306 66.9385 18.1605 67.1572 18.3291C67.376 18.4977 67.5355 18.7119 67.6357 18.9717C67.736 19.2314 67.7861 19.5277 67.7861 19.8604C67.7861 20.3024 67.654 20.7126 67.3896 21.0908C67.1253 21.4691 66.7767 21.738 66.3438 21.8975C65.9108 22.057 65.4072 22.1367 64.833 22.1367C64.1904 22.1367 63.6436 22.0911 63.1924 22C62.7412 21.9089 62.3561 21.7493 62.0371 21.5215ZM69.4678 22C69.1943 22 69.0576 21.8633 69.0576 21.5898V12.3203C69.0576 12.0469 69.1943 11.9102 69.4678 11.9102H70.5615C70.835 11.9102 70.9717 12.0469 70.9717 12.3203V17.3447C70.9717 17.527 70.9626 17.7093 70.9443 17.8916H70.9717L73.1387 15.1025C73.2845 14.9157 73.4622 14.8223 73.6719 14.8223H74.793C75.2122 14.8223 75.2829 14.9909 75.0049 15.3281L72.9404 17.8232L75.333 21.4941C75.5518 21.8314 75.4811 22 75.1211 22H73.9521C73.7243 22 73.5374 21.8815 73.3916 21.6445L71.8398 19.1494L70.9717 20.1953V21.5898C70.9717 21.8633 70.835 22 70.5615 22H69.4678Z" fill="white"/>
</svg>
