<svg width="20" height="20" viewBox="0 0 20 20" fill="none" xmlns="http://www.w3.org/2000/svg">
<path d="M6.87109 2.69571H17.3059V17.3044H6.87109V2.69571Z" fill="#DDDDFF"/>
<path d="M16.6643 2H3.33565C2.98142 2 2.64169 2.14072 2.3912 2.3912C2.14072 2.64169 2 2.98142 2 3.33565V16.6643C2 17.0186 2.14072 17.3583 2.3912 17.6088C2.64169 17.8593 2.98142 18 3.33565 18H16.6643C17.0186 18 17.3583 17.8593 17.6088 17.6088C17.8593 17.3583 18 17.0186 18 16.6643V3.33565C18 2.98142 17.8593 2.64169 17.6088 2.3912C17.3583 2.14072 17.0186 2 16.6643 2ZM17.3043 16.6643C17.3043 16.7484 17.2878 16.8316 17.2556 16.9093C17.2235 16.9869 17.1763 17.0575 17.1169 17.1169C17.0575 17.1763 16.9869 17.2235 16.9093 17.2556C16.8316 17.2878 16.7484 17.3043 16.6643 17.3043H3.33565C3.25161 17.3043 3.16838 17.2878 3.09073 17.2556C3.01309 17.2235 2.94253 17.1763 2.8831 17.1169C2.82367 17.0575 2.77653 16.9869 2.74437 16.9093C2.71221 16.8316 2.69565 16.7484 2.69565 16.6643V3.33565C2.69565 3.16591 2.76308 3.00313 2.8831 2.8831C3.00313 2.76308 3.16591 2.69565 3.33565 2.69565H16.6643C16.7484 2.69565 16.8316 2.71221 16.9093 2.74437C16.9869 2.77653 17.0575 2.82367 17.1169 2.8831C17.1763 2.94253 17.2235 3.01309 17.2556 3.09073C17.2878 3.16838 17.3043 3.25161 17.3043 3.33565V16.6643Z" fill="#5D5FEF" stroke="#5D5FEF" stroke-width="0.3"/>
<path d="M5.68818 5.75626H4.57514C4.50134 5.75626 4.43056 5.78557 4.37838 5.83776C4.32619 5.88994 4.29688 5.96072 4.29688 6.03452V7.14756C4.29688 7.22136 4.32619 7.29214 4.37838 7.34432C4.43056 7.39651 4.50134 7.42582 4.57514 7.42582H5.68818C5.76198 7.42582 5.83276 7.39651 5.88494 7.34432C5.93712 7.29214 5.96644 7.22136 5.96644 7.14756V6.03452C5.96644 5.96072 5.93712 5.88994 5.88494 5.83776C5.83276 5.78557 5.76198 5.75626 5.68818 5.75626ZM5.68818 7.14756H4.57514V6.59104V6.03452H5.68818V7.14756Z" fill="#5D5FEF" stroke="#5D5FEF" stroke-width="0.4"/>
<path d="M8.40234 6.59073H15.6023" stroke="#5D5FEF" stroke-width="0.8" stroke-linecap="round"/>
<path d="M5.68818 9.23477H4.57514C4.50134 9.23477 4.43056 9.26409 4.37838 9.31627C4.32619 9.36846 4.29688 9.43923 4.29688 9.51303V10.6261C4.29688 10.6999 4.32619 10.7707 4.37838 10.8228C4.43056 10.875 4.50134 10.9043 4.57514 10.9043H5.68818C5.76198 10.9043 5.83276 10.875 5.88494 10.8228C5.93712 10.7707 5.96644 10.6999 5.96644 10.6261V9.51303C5.96644 9.43923 5.93712 9.36846 5.88494 9.31627C5.83276 9.26409 5.76198 9.23477 5.68818 9.23477ZM5.68818 10.6261H4.57514V10.0696V9.51303H5.68818V10.6261Z" fill="#5D5FEF" stroke="#5D5FEF" stroke-width="0.4"/>
<path d="M8.40234 10.0692H15.6023" stroke="#5D5FEF" stroke-width="0.8" stroke-linecap="round"/>
<path d="M5.68818 12.7133H4.57514C4.50134 12.7133 4.43056 12.7426 4.37838 12.7948C4.32619 12.847 4.29688 12.9177 4.29688 12.9915V14.1046C4.29688 14.1784 4.32619 14.2492 4.37838 14.3014C4.43056 14.3535 4.50134 14.3829 4.57514 14.3829H5.68818C5.76198 14.3829 5.83276 14.3535 5.88494 14.3014C5.93712 14.2492 5.96644 14.1784 5.96644 14.1046V12.9915C5.96644 12.9177 5.93712 12.847 5.88494 12.7948C5.83276 12.7426 5.76198 12.7133 5.68818 12.7133ZM5.68818 14.1046H4.57514V13.5481V12.9915H5.68818V14.1046Z" fill="#5D5FEF" stroke="#5D5FEF" stroke-width="0.4"/>
<path d="M8.40234 13.5478H15.6023" stroke="#5D5FEF" stroke-width="0.8" stroke-linecap="round"/>
</svg>
